<svg xmlns="http://www.w3.org/2000/svg" width="1480" height="810"><rect rx="5" width="100%" height="100%" fill="#282D35"/><circle cx="20" cy="20" r="6" fill="#FF5F56"/><circle cx="40" cy="20" r="6" fill="#FFBD2E"/><circle cx="60" cy="20" r="6" fill="#18C132"/><defs><clipPath id="clip"><rect width="1440" height="750"/></clipPath></defs><g transform="translate(20,40)" clip-path="url(#clip)"><style>@keyframes k{6.708%{transform:translateX(0px)}7.057%{transform:translateX(-1480px)}19.976%{transform:translateX(-2960px)}21.898%{transform:translateX(-4440px)}23.390%{transform:translateX(-5920px)}33.459%{transform:translateX(-7400px)}33.472%{transform:translateX(-8880px)}33.620%{transform:translateX(-10360px)}34.870%{transform:translateX(-11840px)}55.101%{transform:translateX(-13320px)}75.319%{transform:translateX(-14800px)}82.726%{transform:translateX(-16280px)}83.008%{transform:translateX(-17760px)}91.477%{transform:translateX(-19240px)}93.951%{transform:translateX(-20720px)}95.712%{transform:translateX(-22200px)}99.987%{transform:translateX(-23680px)}100.000%{transform:translateX(-25160px)}}@keyframes blink{0%,50%{opacity:1}50.01%,100%{opacity:0}}text{font-family:Monaco,Consolas,'Courier New',monospace;font-size:20px;fill:#C0C0C0;white-space:pre}.cursor{fill:#C0C0C0;animation:blink 1s step-end infinite}.f{fill:#808080}.g{fill:#008000}.h{fill:#008080}.i{fill:#800000}.e{fill:#FFFF00}.j{fill:#000080}.k{fill:#808000}.l{fill:#000000}.a{fill:#00FF00}.b{fill:#00FFFF}.c{fill:#0000FF}.d{fill:#FF0000}.bold{font-weight:bold}.underline{text-decoration:underline}</style><defs><filter id="bg_7" x="0" y="0" width="1" height="1"><feFlood flood-color="green"/><feComposite in="SourceGraphic" operator="over"/></filter><filter id="bg_8" x="0" y="0" width="1" height="1"><feFlood flood-color="teal"/><feComposite in="SourceGraphic" operator="over"/></filter></defs><g style="animation:k 7.439s infinite steps(1,end)"><g transform="translate(0,0)"><rect class="cursor" x="0" y="0" width="12" height="25"/></g><g transform="translate(1480,0)"><text x="0" y="20" class="a bold">➜  </text><text x="36" y="20" class="b bold">termsvg</text><text x="132" y="20" class="c bold">git:(</text><text x="192" y="20" class="d bold">master</text><text x="264" y="20" class="c bold">) </text><text x="288" y="20" class="e bold">✗</text><rect class="cursor" x="312" y="0" width="12" height="25"/></g><g transform="translate(2960,0)"><text x="0" y="20" class="a bold">➜  </text><text x="36" y="20" class="b bold">termsvg</text><text x="132" y="20" class="c bold">git:(</text><text x="192" y="20" class="d bold">master</text><text x="264" y="20" class="c bold">) </text><text x="288" y="20" class="e bold">✗</text><text x="312" y="20" class="d bold">h</text><text x="324" y="20" class="f">top</text><rect class="cursor" x="324" y="0" width="12" height="25"/></g><g transform="translate(4440,0)"><text x="0" y="20" class="a bold">➜  </text><text x="36" y="20" class="b bold">termsvg</text><text x="132" y="20" class="c bold">git:(</text><text x="192" y="20" class="d bold">master</text><text x="264" y="20" class="c bold">) </text><text x="288" y="20" class="e bold">✗</text><text x="312" y="20" class="d bold">ht</text><text x="336" y="20" class="f">op</text><rect class="cursor" x="336" y="0" width="12" height="25"/></g><g transform="translate(5920,0)"><text x="0" y="20" class="a bold">➜  </text><text x="36" y="20" class="b bold">termsvg</text><text x="132" y="20" class="c bold">git:(</text><text x="192" y="20" class="d bold">master</text><text x="264" y="20" class="c bold">) </text><text x="288" y="20" class="e bold">✗</text><text x="312" y="20" class="d bold">hto</text><text x="348" y="20" class="f">p</text><rect class="cursor" x="348" y="0" width="12" height="25"/></g><g transform="translate(7400,0)"><text x="0" y="20" class="a bold">➜  </text><text x="36" y="20" class="b bold">termsvg</text><text x="132" y="20" class="c bold">git:(</text><text x="192" y="20" class="d bold">master</text><text x="264" y="20" class="c bold">) </text><text x="288" y="20" class="e bold">✗</text><text x="312" y="20" class="g">htop</text><rect class="cursor" x="360" y="0" width="12" height="25"/></g><g transform="translate(8880,0)"><text x="0" y="20" class="a bold">➜  </text><text x="36" y="20" class="b bold">termsvg</text><text x="132" y="20" class="c bold">git:(</text><text x="192" y="20" class="d bold">master</text><text x="264" y="20" class="c bold">) </text><text x="288" y="20" class="e bold">✗</text><text x="312" y="20" class="g">htop</text><rect class="cursor" x="0" y="25" width="12" height="25"/></g><g transform="translate(10360,0)"/><g transform="translate(11840,0)"><text x="24" y="45" class="h">1  </text><text x="60" y="45" class="bold">[</text><text x="72" y="45" class="f bold">                 0.0%</text><text x="324" y="45" class="bold">]</text><text x="372" y="45" class="h">7  </text><text x="408" y="45" class="bold">[</text><text x="420" y="45" class="f bold">                 0.0%</text><text x="672" y="45" class="bold">]</text><text x="720" y="45" class="h">13 </text><text x="756" y="45" class="bold">[</text><text x="768" y="45" class="f bold">                 0.0%</text><text x="1020" y="45" class="bold">]</text><text x="1068" y="45" class="h">19 </text><text x="1104" y="45" class="bold">[</text><text x="1116" y="45" class="f bold">                 0.0%</text><text x="1368" y="45" class="bold">]</text><text x="24" y="70" class="h">2  </text><text x="60" y="70" class="bold">[</text><text x="72" y="70" class="f bold">                 0.0%</text><text x="324" y="70" class="bold">]</text><text x="372" y="70" class="h">8  </text><text x="408" y="70" class="bold">[</text><text x="420" y="70" class="f bold">                 0.0%</text><text x="672" y="70" class="bold">]</text><text x="720" y="70" class="h">14 </text><text x="756" y="70" class="bold">[</text><text x="768" y="70" class="f bold">                 0.0%</text><text x="1020" y="70" class="bold">]</text><text x="1068" y="70" class="h">20 </text><text x="1104" y="70" class="bold">[</text><text x="1116" y="70" class="i">|||||||||||||||100.0%</text><text x="1368" y="70" class="bold">]</text><text x="24" y="95" class="h">3  </text><text x="60" y="95" class="bold">[</text><text x="72" y="95" class="f bold">                 0.0%</text><text x="324" y="95" class="bold">]</text><text x="372" y="95" class="h">9  </text><text x="408" y="95" class="bold">[</text><text x="420" y="95" class="f bold">                 0.0%</text><text x="672" y="95" class="bold">]</text><text x="720" y="95" class="h">15 </text><text x="756" y="95" class="bold">[</text><text x="768" y="95" class="f bold">                 0.0%</text><text x="1020" y="95" class="bold">]</text><text x="1068" y="95" class="h">21 </text><text x="1104" y="95" class="bold">[</text><text x="1116" y="95" class="f bold">                 0.0%</text><text x="1368" y="95" class="bold">]</text><text x="24" y="120" class="h">4  </text><text x="60" y="120" class="bold">[</text><text x="72" y="120" class="f bold">                 0.0%</text><text x="324" y="120" class="bold">]</text><text x="372" y="120" class="h">10 </text><text x="408" y="120" class="bold">[</text><text x="420" y="120" class="f bold">                 0.0%</text><text x="672" y="120" class="bold">]</text><text x="720" y="120" class="h">16 </text><text x="756" y="120" class="bold">[</text><text x="768" y="120" class="f bold">                 0.0%</text><text x="1020" y="120" class="bold">]</text><text x="1068" y="120" class="h">22 </text><text x="1104" y="120" class="bold">[</text><text x="1116" y="120" class="f bold">                 0.0%</text><text x="1368" y="120" class="bold">]</text><text x="24" y="145" class="h">5  </text><text x="60" y="145" class="bold">[</text><text x="72" y="145" class="f bold">                 0.0%</text><text x="324" y="145" class="bold">]</text><text x="372" y="145" class="h">11 </text><text x="408" y="145" class="bold">[</text><text x="420" y="145" class="f bold">                 0.0%</text><text x="672" y="145" class="bold">]</text><text x="720" y="145" class="h">17 </text><text x="756" y="145" class="bold">[</text><text x="768" y="145" class="f bold">                 0.0%</text><text x="1020" y="145" class="bold">]</text><text x="1068" y="145" class="h">23 </text><text x="1104" y="145" class="bold">[</text><text x="1116" y="145" class="f bold">                 0.0%</text><text x="1368" y="145" class="bold">]</text><text x="24" y="170" class="h">6  </text><text x="60" y="170" class="bold">[</text><text x="72" y="170" class="f bold">                 0.0%</text><text x="324" y="170" class="bold">]</text><text x="372" y="170" class="h">12 </text><text x="408" y="170" class="bold">[</text><text x="420" y="170" class="f bold">                 0.0%</text><text x="672" y="170" class="bold">]</text><text x="720" y="170" class="h">18 </text><text x="756" y="170" class="bold">[</text><text x="768" y="170" class="f bold">                 0.0%</text><text x="1020" y="170" class="bold">]</text><text x="1068" y="170" class="h">24 </text><text x="1104" y="170" class="bold">[</text><text x="1116" y="170" class="f bold">                 0.0%</text><text x="1368" y="170" class="bold">]</text><text x="24" y="195" class="h">Mem</text><text x="60" y="195" class="bold">[</text><text x="72" y="195" class="g">|||||||||||||</text><text x="228" y="195" class="j">||||</text><text x="276" y="195" class="k">||||||||||||||||</text><text x="468" y="195" class="f bold">      2.00G/7.72G</text><text x="672" y="195" class="bold">]</text><text x="720" y="195" class="h">Tasks: </text><text x="804" y="195" class="b bold">41</text><text x="828" y="195" class="h">, </text><text x="852" y="195" class="a bold">211</text><text x="888" y="195" class="g"> thr</text><text x="936" y="195" class="h">; </text><text x="960" y="195" class="a bold">1</text><text x="972" y="195" class="h"> running</text><text x="24" y="220" class="h">Swp</text><text x="60" y="220" class="bold">[</text><text x="72" y="220" class="f bold">                                          0K/2.00G</text><text x="672" y="220" class="bold">]</text><text x="720" y="220" class="h">Load average: </text><text x="888" y="220" class="bold">0.00 </text><text x="948" y="220" class="b bold">0.08 </text><text x="1008" y="220" class="h">0.17 </text><text x="720" y="245" class="h">Uptime: </text><text x="816" y="245" class="b bold">13:54:53</text><text x="0" y="295" class="l" filter="url(#bg_7)">  PID USER      PRI  NI  VIRT   RES   SHR S </text><text x="528" y="295" class="l" filter="url(#bg_8)">CPU% </text><text x="588" y="295" class="l" filter="url(#bg_7)">MEM%   TIME+  Command                                                  </text><text x="0" y="320" class="l" filter="url(#bg_8)"> 4385 mrmarble   20   0  8284  3688  3028 R 342.  0.0  0:00.01 htop                                                     </text><text x="0" y="345">    5 </text><text x="72" y="345" class="f bold">root      </text><text x="192" y="345"> 20   0 </text><text x="288" y="345" class="h"> 2</text><text x="312" y="345">424 </text><text x="360" y="345" class="h"> 1</text><text x="384" y="345">524 </text><text x="432" y="345" class="h"> 1</text><text x="456" y="345">020 S  0.0  0.0  0:00.26 </text><text x="756" y="345" class="g">/init</text><text x="0" y="370">    6 </text><text x="72" y="370" class="f bold">root      </text><text x="192" y="370"> 20   0 </text><text x="288" y="370" class="h"> 2</text><text x="312" y="370">424 </text><text x="360" y="370" class="h"> 1</text><text x="384" y="370">524 </text><text x="432" y="370" class="h"> 1</text><text x="456" y="370">020 S  0.0  0.0  0:00.00 </text><text x="756" y="370" class="g">/init</text><text x="0" y="395">    1 </text><text x="72" y="395" class="f bold">root      </text><text x="192" y="395"> 20   0 </text><text x="288" y="395" class="h"> 2</text><text x="312" y="395">424 </text><text x="360" y="395" class="h"> 1</text><text x="384" y="395">524 </text><text x="432" y="395" class="h"> 1</text><text x="456" y="395">020 S  0.0  0.0  0:00.94 /init                                                    </text><text x="0" y="420">   11 </text><text x="72" y="420" class="f bold">root      </text><text x="192" y="420"> 20   0 </text><text x="288" y="420" class="h"> 1</text><text x="312" y="420">752    72     0 S  0.0  0.0  0:00.00 /init                                                    </text><text x="0" y="445">   12 </text><text x="72" y="445" class="f bold">root      </text><text x="192" y="445"> 20   0 </text><text x="288" y="445" class="h"> 1</text><text x="312" y="445">752    80     0 S  0.0  0.0  0:00.07 /init                                                    </text><text x="0" y="470">   13 mrmarble   20   0 </text><text x="288" y="470" class="h"> 2</text><text x="312" y="470">612   600   532 S  0.0  0.0  0:00.00 sh -c "$VSCODE_WSL_EXT_LOCATION/scripts/wslServer.sh" b52</text><text x="0" y="495">   14 mrmarble   20   0 </text><text x="288" y="495" class="h"> 2</text><text x="312" y="495">612 </text><text x="360" y="495" class="h"> 1</text><text x="384" y="495">676 </text><text x="432" y="495" class="h"> 1</text><text x="456" y="495">560 S  0.0  0.0  0:00.00 sh /mnt/c/Users/alv_t/.vscode/extensions/ms-vscode-remote</text><text x="0" y="520">   39 mrmarble   20   0 </text><text x="288" y="520" class="h"> 2</text><text x="312" y="520">612   600   532 S  0.0  0.0  0:00.00 sh /home/mrmarble/.vscode-server/bin/b5205cc8eb4fbaa72683</text><text x="0" y="545">   44 mrmarble   20   0 </text><text x="288" y="545" class="h"> 919M 91</text><text x="384" y="545">708 </text><text x="432" y="545" class="h">32</text><text x="456" y="545">760 S  0.0  1.1  0:00.00 </text><text x="756" y="545" class="g">/home/mrmarble/.vscode-server/bin/b5205cc8eb4fbaa72683553</text><text x="0" y="570">   45 mrmarble   20   0 </text><text x="288" y="570" class="h"> 919M 91</text><text x="384" y="570">708 </text><text x="432" y="570" class="h">32</text><text x="456" y="570">760 S  0.0  1.1  0:03.82 </text><text x="756" y="570" class="g">/home/mrmarble/.vscode-server/bin/b5205cc8eb4fbaa72683553</text><text x="0" y="595">   46 mrmarble   20   0 </text><text x="288" y="595" class="h"> 919M 91</text><text x="384" y="595">708 </text><text x="432" y="595" class="h">32</text><text x="456" y="595">760 S  0.0  1.1  0:03.75 </text><text x="756" y="595" class="g">/home/mrmarble/.vscode-server/bin/b5205cc8eb4fbaa72683553</text><text x="0" y="620">   47 mrmarble   20   0 </text><text x="288" y="620" class="h"> 919M 91</text><text x="384" y="620">708 </text><text x="432" y="620" class="h">32</text><text x="456" y="620">760 S  0.0  1.1  0:03.76 </text><text x="756" y="620" class="g">/home/mrmarble/.vscode-server/bin/b5205cc8eb4fbaa72683553</text><text x="0" y="645">   48 mrmarble   20   0 </text><text x="288" y="645" class="h"> 919M 91</text><text x="384" y="645">708 </text><text x="432" y="645" class="h">32</text><text x="456" y="645">760 S  0.0  1.1  0:03.69 </text><text x="756" y="645" class="g">/home/mrmarble/.vscode-server/bin/b5205cc8eb4fbaa72683553</text><text x="0" y="670">   49 mrmarble   20   0 </text><text x="288" y="670" class="h"> 919M 91</text><text x="384" y="670">708 </text><text x="432" y="670" class="h">32</text><text x="456" y="670">760 S  0.0  1.1  0:00.00 </text><text x="756" y="670" class="g">/home/mrmarble/.vscode-server/bin/b5205cc8eb4fbaa72683553</text><text x="0" y="695">   50 mrmarble   20   0 </text><text x="288" y="695" class="h"> 919M 91</text><text x="384" y="695">708 </text><text x="432" y="695" class="h">32</text><text x="456" y="695">760 S  0.0  1.1  0:02.70 </text><text x="756" y="695" class="g">/home/mrmarble/.vscode-server/bin/b5205cc8eb4fbaa72683553</text><text x="0" y="720">   51 mrmarble   20   0 </text><text x="288" y="720" class="h"> 919M 91</text><text x="384" y="720">708 </text><text x="432" y="720" class="h">32</text><text x="456" y="720">760 S  0.0  1.1  0:02.70 </text><text x="756" y="720" class="g">/home/mrmarble/.vscode-server/bin/b5205cc8eb4fbaa72683553</text><text x="0" y="745">F1</text><text x="24" y="745" class="l" filter="url(#bg_8)">Help  </text><text x="96" y="745">F2</text><text x="120" y="745" class="l" filter="url(#bg_8)">Setup </text><text x="192" y="745">F3</text><text x="216" y="745" class="l" filter="url(#bg_8)">Search</text><text x="288" y="745">F4</text><text x="312" y="745" class="l" filter="url(#bg_8)">Filter</text><text x="384" y="745">F5</text><text x="408" y="745" class="l" filter="url(#bg_8)">Tree  </text><text x="480" y="745">F6</text><text x="504" y="745" class="l" filter="url(#bg_8)">SortBy</text><text x="576" y="745">F7</text><text x="600" y="745" class="l" filter="url(#bg_8)">Nice -</text><text x="672" y="745">F8</text><text x="696" y="745" class="l" filter="url(#bg_8)">Nice +</text><text x="768" y="745">F9</text><text x="792" y="745" class="l" filter="url(#bg_8)">Kill  </text><text x="864" y="745">F10</text><text x="900" y="745" class="l" filter="url(#bg_8)">Quit                                         </text></g><g transform="translate(13320,0)"><text x="24" y="45" class="h">1  </text><text x="60" y="45" class="bold">[</text><text x="72" y="45" class="f bold">                 0.0%</text><text x="324" y="45" class="bold">]</text><text x="372" y="45" class="h">7  </text><text x="408" y="45" class="bold">[</text><text x="420" y="45" class="f bold">                 0.0%</text><text x="672" y="45" class="bold">]</text><text x="720" y="45" class="h">13 </text><text x="756" y="45" class="bold">[</text><text x="768" y="45" class="f bold">                 0.0%</text><text x="1020" y="45" class="bold">]</text><text x="1068" y="45" class="h">19 </text><text x="1104" y="45" class="bold">[</text><text x="1116" y="45" class="f bold">                 0.0%</text><text x="1368" y="45" class="bold">]</text><text x="24" y="70" class="h">2  </text><text x="60" y="70" class="bold">[</text><text x="72" y="70" class="f bold">                 0.0%</text><text x="324" y="70" class="bold">]</text><text x="372" y="70" class="h">8  </text><text x="408" y="70" class="bold">[</text><text x="420" y="70" class="f bold">                 0.0%</text><text x="672" y="70" class="bold">]</text><text x="720" y="70" class="h">14 </text><text x="756" y="70" class="bold">[</text><text x="768" y="70" class="f bold">                 0.0%</text><text x="1020" y="70" class="bold">]</text><text x="1068" y="70" class="h">20 </text><text x="1104" y="70" class="bold">[</text><text x="1116" y="70" class="f bold">                 0.0%</text><text x="1368" y="70" class="bold">]</text><text x="24" y="95" class="h">3  </text><text x="60" y="95" class="bold">[</text><text x="72" y="95" class="f bold">                 0.0%</text><text x="324" y="95" class="bold">]</text><text x="372" y="95" class="h">9  </text><text x="408" y="95" class="bold">[</text><text x="420" y="95" class="f bold">                 0.0%</text><text x="672" y="95" class="bold">]</text><text x="720" y="95" class="h">15 </text><text x="756" y="95" class="bold">[</text><text x="768" y="95" class="f bold">                 0.0%</text><text x="1020" y="95" class="bold">]</text><text x="1068" y="95" class="h">21 </text><text x="1104" y="95" class="bold">[</text><text x="1116" y="95" class="f bold">                 0.0%</text><text x="1368" y="95" class="bold">]</text><text x="24" y="120" class="h">4  </text><text x="60" y="120" class="bold">[</text><text x="72" y="120" class="f bold">                 0.0%</text><text x="324" y="120" class="bold">]</text><text x="372" y="120" class="h">10 </text><text x="408" y="120" class="bold">[</text><text x="420" y="120" class="f bold">                 0.0%</text><text x="672" y="120" class="bold">]</text><text x="720" y="120" class="h">16 </text><text x="756" y="120" class="bold">[</text><text x="768" y="120" class="f bold">                 0.0%</text><text x="1020" y="120" class="bold">]</text><text x="1068" y="120" class="h">22 </text><text x="1104" y="120" class="bold">[</text><text x="1116" y="120" class="f bold">                 0.0%</text><text x="1368" y="120" class="bold">]</text><text x="24" y="145" class="h">5  </text><text x="60" y="145" class="bold">[</text><text x="72" y="145" class="f bold">                 0.0%</text><text x="324" y="145" class="bold">]</text><text x="372" y="145" class="h">11 </text><text x="408" y="145" class="bold">[</text><text x="420" y="145" class="f bold">                 0.0%</text><text x="672" y="145" class="bold">]</text><text x="720" y="145" class="h">17 </text><text x="756" y="145" class="bold">[</text><text x="768" y="145" class="f bold">                 0.0%</text><text x="1020" y="145" class="bold">]</text><text x="1068" y="145" class="h">23 </text><text x="1104" y="145" class="bold">[</text><text x="1116" y="145" class="f bold">                 0.0%</text><text x="1368" y="145" class="bold">]</text><text x="24" y="170" class="h">6  </text><text x="60" y="170" class="bold">[</text><text x="72" y="170" class="f bold">                 0.0%</text><text x="324" y="170" class="bold">]</text><text x="372" y="170" class="h">12 </text><text x="408" y="170" class="bold">[</text><text x="420" y="170" class="f bold">                 0.0%</text><text x="672" y="170" class="bold">]</text><text x="720" y="170" class="h">18 </text><text x="756" y="170" class="bold">[</text><text x="768" y="170" class="f bold">                 0.0%</text><text x="1020" y="170" class="bold">]</text><text x="1068" y="170" class="h">24 </text><text x="1104" y="170" class="bold">[</text><text x="1116" y="170" class="f bold">                 0.0%</text><text x="1368" y="170" class="bold">]</text><text x="24" y="195" class="h">Mem</text><text x="60" y="195" class="bold">[</text><text x="72" y="195" class="g">|||||||||||||</text><text x="228" y="195" class="j">||||</text><text x="276" y="195" class="k">||||||||||||||||</text><text x="468" y="195" class="f bold">      2.00G/7.72G</text><text x="672" y="195" class="bold">]</text><text x="720" y="195" class="h">Tasks: </text><text x="804" y="195" class="b bold">41</text><text x="828" y="195" class="h">, </text><text x="852" y="195" class="a bold">211</text><text x="888" y="195" class="g"> thr</text><text x="936" y="195" class="h">; </text><text x="960" y="195" class="a bold">1</text><text x="972" y="195" class="h"> running</text><text x="24" y="220" class="h">Swp</text><text x="60" y="220" class="bold">[</text><text x="72" y="220" class="f bold">                                          0K/2.00G</text><text x="672" y="220" class="bold">]</text><text x="720" y="220" class="h">Load average: </text><text x="888" y="220" class="bold">0.00 </text><text x="948" y="220" class="b bold">0.08 </text><text x="1008" y="220" class="h">0.17 </text><text x="720" y="245" class="h">Uptime: </text><text x="816" y="245" class="b bold">13:54:55</text><text x="0" y="295" class="l" filter="url(#bg_7)">  PID USER      PRI  NI  VIRT   RES   SHR S </text><text x="528" y="295" class="l" filter="url(#bg_8)">CPU% </text><text x="588" y="295" class="l" filter="url(#bg_7)">MEM%   TIME+  Command                                                  </text><text x="0" y="320" class="l" filter="url(#bg_8)"> 3192 mrmarble   20   0 1484M  9476  2880 S  2.0  0.1  0:00.15 ./../swatch/swatch examples/session.svg                  </text><text x="0" y="345"> 3198 mrmarble   20   0 </text><text x="288" y="345" class="h">1484M  9</text><text x="384" y="345">476 </text><text x="432" y="345" class="h"> 2</text><text x="456" y="345">880 S  0.7  0.1  0:00.02 </text><text x="756" y="345" class="g">./../swatch/swatch examples/session.svg</text><text x="0" y="370"> 3374 mrmarble   20   0 </text><text x="288" y="370" class="h">1484M  9</text><text x="384" y="370">476 </text><text x="432" y="370" class="h"> 2</text><text x="456" y="370">880 S  0.7  0.1  0:00.01 </text><text x="756" y="370" class="g">./../swatch/swatch examples/session.svg</text><text x="0" y="395"> 3557 </text><text x="72" y="395" class="f bold">root      </text><text x="192" y="395"> 20   0 </text><text x="288" y="395" class="h"> 2</text><text x="312" y="395">512   560     0 S  0.7  0.0  0:00.01 /init                                                    </text><text x="0" y="420"> 4385 mrmarble   20   0 </text><text x="288" y="420" class="h"> 8</text><text x="312" y="420">284 </text><text x="360" y="420" class="h"> 3</text><text x="384" y="420">688 </text><text x="432" y="420" class="h"> 3</text><text x="456" y="420">028 </text><text x="504" y="420" class="g">R </text><text x="528" y="420"> 0.0  0.0  0:00.01 htop                                                     </text><text x="0" y="445">    5 </text><text x="72" y="445" class="f bold">root      </text><text x="192" y="445"> 20   0 </text><text x="288" y="445" class="h"> 2</text><text x="312" y="445">424 </text><text x="360" y="445" class="h"> 1</text><text x="384" y="445">524 </text><text x="432" y="445" class="h"> 1</text><text x="456" y="445">020 S  0.0  0.0  0:00.26 </text><text x="756" y="445" class="g">/init</text><text x="0" y="470">    6 </text><text x="72" y="470" class="f bold">root      </text><text x="192" y="470"> 20   0 </text><text x="288" y="470" class="h"> 2</text><text x="312" y="470">424 </text><text x="360" y="470" class="h"> 1</text><text x="384" y="470">524 </text><text x="432" y="470" class="h"> 1</text><text x="456" y="470">020 S  0.0  0.0  0:00.00 </text><text x="756" y="470" class="g">/init</text><text x="0" y="495">    1 </text><text x="72" y="495" class="f bold">root      </text><text x="192" y="495"> 20   0 </text><text x="288" y="495" class="h"> 2</text><text x="312" y="495">424 </text><text x="360" y="495" class="h"> 1</text><text x="384" y="495">524 </text><text x="432" y="495" class="h"> 1</text><text x="456" y="495">020 S  0.0  0.0  0:00.94 /init                                                    </text><text x="0" y="520">   11 </text><text x="72" y="520" class="f bold">root      </text><text x="192" y="520"> 20   0 </text><text x="288" y="520" class="h"> 1</text><text x="312" y="520">752    72     0 S  0.0  0.0  0:00.00 /init                                                    </text><text x="0" y="545">   12 </text><text x="72" y="545" class="f bold">root      </text><text x="192" y="545"> 20   0 </text><text x="288" y="545" class="h"> 1</text><text x="312" y="545">752    80     0 S  0.0  0.0  0:00.07 /init                                                    </text><text x="0" y="570">   13 mrmarble   20   0 </text><text x="288" y="570" class="h"> 2</text><text x="312" y="570">612   600   532 S  0.0  0.0  0:00.00 sh -c "$VSCODE_WSL_EXT_LOCATION/scripts/wslServer.sh" b52</text><text x="0" y="595">   14 mrmarble   20   0 </text><text x="288" y="595" class="h"> 2</text><text x="312" y="595">612 </text><text x="360" y="595" class="h"> 1</text><text x="384" y="595">676 </text><text x="432" y="595" class="h"> 1</text><text x="456" y="595">560 S  0.0  0.0  0:00.00 sh /mnt/c/Users/alv_t/.vscode/extensions/ms-vscode-remote</text><text x="0" y="620">   39 mrmarble   20   0 </text><text x="288" y="620" class="h"> 2</text><text x="312" y="620">612   600   532 S  0.0  0.0  0:00.00 sh /home/mrmarble/.vscode-server/bin/b5205cc8eb4fbaa72683</text><text x="0" y="645">   44 mrmarble   20   0 </text><text x="288" y="645" class="h"> 919M 91</text><text x="384" y="645">708 </text><text x="432" y="645" class="h">32</text><text x="456" y="645">760 S  0.0  1.1  0:00.00 </text><text x="756" y="645" class="g">/home/mrmarble/.vscode-server/bin/b5205cc8eb4fbaa72683553</text><text x="0" y="670">   45 mrmarble   20   0 </text><text x="288" y="670" class="h"> 919M 91</text><text x="384" y="670">708 </text><text x="432" y="670" class="h">32</text><text x="456" y="670">760 S  0.0  1.1  0:03.82 </text><text x="756" y="670" class="g">/home/mrmarble/.vscode-server/bin/b5205cc8eb4fbaa72683553</text><text x="0" y="695">   46 mrmarble   20   0 </text><text x="288" y="695" class="h"> 919M 91</text><text x="384" y="695">708 </text><text x="432" y="695" class="h">32</text><text x="456" y="695">760 S  0.0  1.1  0:03.75 </text><text x="756" y="695" class="g">/home/mrmarble/.vscode-server/bin/b5205cc8eb4fbaa72683553</text><text x="0" y="720">   47 mrmarble   20   0 </text><text x="288" y="720" class="h"> 919M 91</text><text x="384" y="720">708 </text><text x="432" y="720" class="h">32</text><text x="456" y="720">760 S  0.0  1.1  0:03.76 </text><text x="756" y="720" class="g">/home/mrmarble/.vscode-server/bin/b5205cc8eb4fbaa72683553</text><text x="0" y="745">F1</text><text x="24" y="745" class="l" filter="url(#bg_8)">Help  </text><text x="96" y="745">F2</text><text x="120" y="745" class="l" filter="url(#bg_8)">Setup </text><text x="192" y="745">F3</text><text x="216" y="745" class="l" filter="url(#bg_8)">Search</text><text x="288" y="745">F4</text><text x="312" y="745" class="l" filter="url(#bg_8)">Filter</text><text x="384" y="745">F5</text><text x="408" y="745" class="l" filter="url(#bg_8)">Tree  </text><text x="480" y="745">F6</text><text x="504" y="745" class="l" filter="url(#bg_8)">SortBy</text><text x="576" y="745">F7</text><text x="600" y="745" class="l" filter="url(#bg_8)">Nice -</text><text x="672" y="745">F8</text><text x="696" y="745" class="l" filter="url(#bg_8)">Nice +</text><text x="768" y="745">F9</text><text x="792" y="745" class="l" filter="url(#bg_8)">Kill  </text><text x="864" y="745">F10</text><text x="900" y="745" class="l" filter="url(#bg_8)">Quit                                         </text></g><g transform="translate(14800,0)"><text x="24" y="45" class="h">1  </text><text x="60" y="45" class="bold">[</text><text x="72" y="45" class="f bold">                 0.0%</text><text x="324" y="45" class="bold">]</text><text x="372" y="45" class="h">7  </text><text x="408" y="45" class="bold">[</text><text x="420" y="45" class="f bold">                 0.0%</text><text x="672" y="45" class="bold">]</text><text x="720" y="45" class="h">13 </text><text x="756" y="45" class="bold">[</text><text x="768" y="45" class="f bold">                 0.0%</text><text x="1020" y="45" class="bold">]</text><text x="1068" y="45" class="h">19 </text><text x="1104" y="45" class="bold">[</text><text x="1116" y="45" class="f bold">                 0.0%</text><text x="1368" y="45" class="bold">]</text><text x="24" y="70" class="h">2  </text><text x="60" y="70" class="bold">[</text><text x="72" y="70" class="f bold">                 0.0%</text><text x="324" y="70" class="bold">]</text><text x="372" y="70" class="h">8  </text><text x="408" y="70" class="bold">[</text><text x="420" y="70" class="f bold">                 0.0%</text><text x="672" y="70" class="bold">]</text><text x="720" y="70" class="h">14 </text><text x="756" y="70" class="bold">[</text><text x="768" y="70" class="f bold">                 0.0%</text><text x="1020" y="70" class="bold">]</text><text x="1068" y="70" class="h">20 </text><text x="1104" y="70" class="bold">[</text><text x="1116" y="70" class="i">|</text><text x="1128" y="70" class="f bold">                0.7%</text><text x="1368" y="70" class="bold">]</text><text x="24" y="95" class="h">3  </text><text x="60" y="95" class="bold">[</text><text x="72" y="95" class="f bold">                 0.0%</text><text x="324" y="95" class="bold">]</text><text x="372" y="95" class="h">9  </text><text x="408" y="95" class="bold">[</text><text x="420" y="95" class="f bold">                 0.0%</text><text x="672" y="95" class="bold">]</text><text x="720" y="95" class="h">15 </text><text x="756" y="95" class="bold">[</text><text x="768" y="95" class="f bold">                 0.0%</text><text x="1020" y="95" class="bold">]</text><text x="1068" y="95" class="h">21 </text><text x="1104" y="95" class="bold">[</text><text x="1116" y="95" class="f bold">                 0.0%</text><text x="1368" y="95" class="bold">]</text><text x="24" y="120" class="h">4  </text><text x="60" y="120" class="bold">[</text><text x="72" y="120" class="f bold">                 0.0%</text><text x="324" y="120" class="bold">]</text><text x="372" y="120" class="h">10 </text><text x="408" y="120" class="bold">[</text><text x="420" y="120" class="f bold">                 0.0%</text><text x="672" y="120" class="bold">]</text><text x="720" y="120" class="h">16 </text><text x="756" y="120" class="bold">[</text><text x="768" y="120" class="f bold">                 0.0%</text><text x="1020" y="120" class="bold">]</text><text x="1068" y="120" class="h">22 </text><text x="1104" y="120" class="bold">[</text><text x="1116" y="120" class="f bold">                 0.0%</text><text x="1368" y="120" class="bold">]</text><text x="24" y="145" class="h">5  </text><text x="60" y="145" class="bold">[</text><text x="72" y="145" class="f bold">                 0.0%</text><text x="324" y="145" class="bold">]</text><text x="372" y="145" class="h">11 </text><text x="408" y="145" class="bold">[</text><text x="420" y="145" class="f bold">                 0.0%</text><text x="672" y="145" class="bold">]</text><text x="720" y="145" class="h">17 </text><text x="756" y="145" class="bold">[</text><text x="768" y="145" class="f bold">                 0.0%</text><text x="1020" y="145" class="bold">]</text><text x="1068" y="145" class="h">23 </text><text x="1104" y="145" class="bold">[</text><text x="1116" y="145" class="f bold">                 0.0%</text><text x="1368" y="145" class="bold">]</text><text x="24" y="170" class="h">6  </text><text x="60" y="170" class="bold">[</text><text x="72" y="170" class="f bold">                 0.0%</text><text x="324" y="170" class="bold">]</text><text x="372" y="170" class="h">12 </text><text x="408" y="170" class="bold">[</text><text x="420" y="170" class="f bold">                 0.0%</text><text x="672" y="170" class="bold">]</text><text x="720" y="170" class="h">18 </text><text x="756" y="170" class="bold">[</text><text x="768" y="170" class="f bold">                 0.0%</text><text x="1020" y="170" class="bold">]</text><text x="1068" y="170" class="h">24 </text><text x="1104" y="170" class="bold">[</text><text x="1116" y="170" class="f bold">                 0.0%</text><text x="1368" y="170" class="bold">]</text><text x="24" y="195" class="h">Mem</text><text x="60" y="195" class="bold">[</text><text x="72" y="195" class="g">|||||||||||||</text><text x="228" y="195" class="j">||||</text><text x="276" y="195" class="k">||||||||||||||||</text><text x="468" y="195" class="f bold">      2.00G/7.72G</text><text x="672" y="195" class="bold">]</text><text x="720" y="195" class="h">Tasks: </text><text x="804" y="195" class="b bold">41</text><text x="828" y="195" class="h">, </text><text x="852" y="195" class="a bold">211</text><text x="888" y="195" class="g"> thr</text><text x="936" y="195" class="h">; </text><text x="960" y="195" class="a bold">1</text><text x="972" y="195" class="h"> running</text><text x="24" y="220" class="h">Swp</text><text x="60" y="220" class="bold">[</text><text x="72" y="220" class="f bold">                                          0K/2.00G</text><text x="672" y="220" class="bold">]</text><text x="720" y="220" class="h">Load average: </text><text x="888" y="220" class="bold">0.00 </text><text x="948" y="220" class="b bold">0.08 </text><text x="1008" y="220" class="h">0.17 </text><text x="720" y="245" class="h">Uptime: </text><text x="816" y="245" class="b bold">13:54:56</text><text x="0" y="295" class="l" filter="url(#bg_7)">  PID USER      PRI  NI  VIRT   RES   SHR S </text><text x="528" y="295" class="l" filter="url(#bg_8)">CPU% </text><text x="588" y="295" class="l" filter="url(#bg_7)">MEM%   TIME+  Command                                                  </text><text x="0" y="320" class="l" filter="url(#bg_8)"> 3192 mrmarble   20   0 1484M  9476  2880 S  0.0  0.1  0:00.15 ./../swatch/swatch examples/session.svg                  </text><text x="0" y="345"> 3198 mrmarble   20   0 </text><text x="288" y="345" class="h">1484M  9</text><text x="384" y="345">476 </text><text x="432" y="345" class="h"> 2</text><text x="456" y="345">880 S  0.0  0.1  0:00.02 </text><text x="756" y="345" class="g">./../swatch/swatch examples/session.svg</text><text x="0" y="370"> 3374 mrmarble   20   0 </text><text x="288" y="370" class="h">1484M  9</text><text x="384" y="370">476 </text><text x="432" y="370" class="h"> 2</text><text x="456" y="370">880 S  0.0  0.1  0:00.01 </text><text x="756" y="370" class="g">./../swatch/swatch examples/session.svg</text><text x="0" y="395"> 3557 </text><text x="72" y="395" class="f bold">root      </text><text x="192" y="395"> 20   0 </text><text x="288" y="395" class="h"> 2</text><text x="312" y="395">512   560     0 S  0.0  0.0  0:00.01 /init                                                    </text><text x="0" y="420"> 4385 mrmarble   20   0 </text><text x="288" y="420" class="h"> 8</text><text x="312" y="420">284 </text><text x="360" y="420" class="h"> 3</text><text x="384" y="420">688 </text><text x="432" y="420" class="h"> 3</text><text x="456" y="420">028 </text><text x="504" y="420" class="g">R </text><text x="528" y="420"> 0.0  0.0  0:00.01 htop                                                     </text><text x="0" y="445">    5 </text><text x="72" y="445" class="f bold">root      </text><text x="192" y="445"> 20   0 </text><text x="288" y="445" class="h"> 2</text><text x="312" y="445">424 </text><text x="360" y="445" class="h"> 1</text><text x="384" y="445">524 </text><text x="432" y="445" class="h"> 1</text><text x="456" y="445">020 S  0.0  0.0  0:00.26 </text><text x="756" y="445" class="g">/init</text><text x="0" y="470">    6 </text><text x="72" y="470" class="f bold">root      </text><text x="192" y="470"> 20   0 </text><text x="288" y="470" class="h"> 2</text><text x="312" y="470">424 </text><text x="360" y="470" class="h"> 1</text><text x="384" y="470">524 </text><text x="432" y="470" class="h"> 1</text><text x="456" y="470">020 S  0.0  0.0  0:00.00 </text><text x="756" y="470" class="g">/init</text><text x="0" y="495">    1 </text><text x="72" y="495" class="f bold">root      </text><text x="192" y="495"> 20   0 </text><text x="288" y="495" class="h"> 2</text><text x="312" y="495">424 </text><text x="360" y="495" class="h"> 1</text><text x="384" y="495">524 </text><text x="432" y="495" class="h"> 1</text><text x="456" y="495">020 S  0.0  0.0  0:00.94 /init                                                    </text><text x="0" y="520">   11 </text><text x="72" y="520" class="f bold">root      </text><text x="192" y="520"> 20   0 </text><text x="288" y="520" class="h"> 1</text><text x="312" y="520">752    72     0 S  0.0  0.0  0:00.00 /init                                                    </text><text x="0" y="545">   12 </text><text x="72" y="545" class="f bold">root      </text><text x="192" y="545"> 20   0 </text><text x="288" y="545" class="h"> 1</text><text x="312" y="545">752    80     0 S  0.0  0.0  0:00.07 /init                                                    </text><text x="0" y="570">   13 mrmarble   20   0 </text><text x="288" y="570" class="h"> 2</text><text x="312" y="570">612   600   532 S  0.0  0.0  0:00.00 sh -c "$VSCODE_WSL_EXT_LOCATION/scripts/wslServer.sh" b52</text><text x="0" y="595">   14 mrmarble   20   0 </text><text x="288" y="595" class="h"> 2</text><text x="312" y="595">612 </text><text x="360" y="595" class="h"> 1</text><text x="384" y="595">676 </text><text x="432" y="595" class="h"> 1</text><text x="456" y="595">560 S  0.0  0.0  0:00.00 sh /mnt/c/Users/alv_t/.vscode/extensions/ms-vscode-remote</text><text x="0" y="620">   39 mrmarble   20   0 </text><text x="288" y="620" class="h"> 2</text><text x="312" y="620">612   600   532 S  0.0  0.0  0:00.00 sh /home/mrmarble/.vscode-server/bin/b5205cc8eb4fbaa72683</text><text x="0" y="645">   44 mrmarble   20   0 </text><text x="288" y="645" class="h"> 919M 91</text><text x="384" y="645">708 </text><text x="432" y="645" class="h">32</text><text x="456" y="645">760 S  0.0  1.1  0:00.00 </text><text x="756" y="645" class="g">/home/mrmarble/.vscode-server/bin/b5205cc8eb4fbaa72683553</text><text x="0" y="670">   45 mrmarble   20   0 </text><text x="288" y="670" class="h"> 919M 91</text><text x="384" y="670">708 </text><text x="432" y="670" class="h">32</text><text x="456" y="670">760 S  0.0  1.1  0:03.82 </text><text x="756" y="670" class="g">/home/mrmarble/.vscode-server/bin/b5205cc8eb4fbaa72683553</text><text x="0" y="695">   46 mrmarble   20   0 </text><text x="288" y="695" class="h"> 919M 91</text><text x="384" y="695">708 </text><text x="432" y="695" class="h">32</text><text x="456" y="695">760 S  0.0  1.1  0:03.75 </text><text x="756" y="695" class="g">/home/mrmarble/.vscode-server/bin/b5205cc8eb4fbaa72683553</text><text x="0" y="720">   47 mrmarble   20   0 </text><text x="288" y="720" class="h"> 919M 91</text><text x="384" y="720">708 </text><text x="432" y="720" class="h">32</text><text x="456" y="720">760 S  0.0  1.1  0:03.76 </text><text x="756" y="720" class="g">/home/mrmarble/.vscode-server/bin/b5205cc8eb4fbaa72683553</text><text x="0" y="745">F1</text><text x="24" y="745" class="l" filter="url(#bg_8)">Help  </text><text x="96" y="745">F2</text><text x="120" y="745" class="l" filter="url(#bg_8)">Setup </text><text x="192" y="745">F3</text><text x="216" y="745" class="l" filter="url(#bg_8)">Search</text><text x="288" y="745">F4</text><text x="312" y="745" class="l" filter="url(#bg_8)">Filter</text><text x="384" y="745">F5</text><text x="408" y="745" class="l" filter="url(#bg_8)">Tree  </text><text x="480" y="745">F6</text><text x="504" y="745" class="l" filter="url(#bg_8)">SortBy</text><text x="576" y="745">F7</text><text x="600" y="745" class="l" filter="url(#bg_8)">Nice -</text><text x="672" y="745">F8</text><text x="696" y="745" class="l" filter="url(#bg_8)">Nice +</text><text x="768" y="745">F9</text><text x="792" y="745" class="l" filter="url(#bg_8)">Kill  </text><text x="864" y="745">F10</text><text x="900" y="745" class="l" filter="url(#bg_8)">Quit                                         </text></g><g transform="translate(16280,0)"><text x="0" y="20" class="a bold">➜  </text><text x="36" y="20" class="b bold">termsvg</text><text x="132" y="20" class="c bold">git:(</text><text x="192" y="20" class="d bold">master</text><text x="264" y="20" class="c bold">) </text><text x="288" y="20" class="e bold">✗</text><text x="312" y="20" class="g">htop</text><rect class="cursor" x="0" y="25" width="12" height="25"/></g><g transform="translate(17760,0)"><text x="0" y="20" class="a bold">➜  </text><text x="36" y="20" class="b bold">termsvg</text><text x="132" y="20" class="c bold">git:(</text><text x="192" y="20" class="d bold">master</text><text x="264" y="20" class="c bold">) </text><text x="288" y="20" class="e bold">✗</text><text x="312" y="20" class="g">htop</text><text x="0" y="45" class="d bold">➜  </text><text x="36" y="45" class="b bold">termsvg</text><text x="132" y="45" class="c bold">git:(</text><text x="192" y="45" class="d bold">master</text><text x="264" y="45" class="c bold">) </text><text x="288" y="45" class="e bold">✗</text><rect class="cursor" x="312" y="25" width="12" height="25"/></g><g transform="translate(19240,0)"><text x="0" y="20" class="a bold">➜  </text><text x="36" y="20" class="b bold">termsvg</text><text x="132" y="20" class="c bold">git:(</text><text x="192" y="20" class="d bold">master</text><text x="264" y="20" class="c bold">) </text><text x="288" y="20" class="e bold">✗</text><text x="312" y="20" class="g">htop</text><text x="0" y="45" class="d bold">➜  </text><text x="36" y="45" class="b bold">termsvg</text><text x="132" y="45" class="c bold">git:(</text><text x="192" y="45" class="d bold">master</text><text x="264" y="45" class="c bold">) </text><text x="288" y="45" class="e bold">✗</text><text x="312" y="45" class="underline">e</text><text x="324" y="45" class="f">xit</text><rect class="cursor" x="324" y="25" width="12" height="25"/></g><g transform="translate(20720,0)"><text x="0" y="20" class="a bold">➜  </text><text x="36" y="20" class="b bold">termsvg</text><text x="132" y="20" class="c bold">git:(</text><text x="192" y="20" class="d bold">master</text><text x="264" y="20" class="c bold">) </text><text x="288" y="20" class="e bold">✗</text><text x="312" y="20" class="g">htop</text><text x="0" y="45" class="d bold">➜  </text><text x="36" y="45" class="b bold">termsvg</text><text x="132" y="45" class="c bold">git:(</text><text x="192" y="45" class="d bold">master</text><text x="264" y="45" class="c bold">) </text><text x="288" y="45" class="e bold">✗</text><text x="312" y="45" class="g">ex</text><text x="336" y="45" class="f">it</text><rect class="cursor" x="336" y="25" width="12" height="25"/></g><g transform="translate(22200,0)"><text x="0" y="20" class="a bold">➜  </text><text x="36" y="20" class="b bold">termsvg</text><text x="132" y="20" class="c bold">git:(</text><text x="192" y="20" class="d bold">master</text><text x="264" y="20" class="c bold">) </text><text x="288" y="20" class="e bold">✗</text><text x="312" y="20" class="g">htop</text><text x="0" y="45" class="d bold">➜  </text><text x="36" y="45" class="b bold">termsvg</text><text x="132" y="45" class="c bold">git:(</text><text x="192" y="45" class="d bold">master</text><text x="264" y="45" class="c bold">) </text><text x="288" y="45" class="e bold">✗</text><text x="312" y="45" class="d bold">exi</text><text x="348" y="45" class="f">t</text><rect class="cursor" x="348" y="25" width="12" height="25"/></g><g transform="translate(23680,0)"><text x="0" y="20" class="a bold">➜  </text><text x="36" y="20" class="b bold">termsvg</text><text x="132" y="20" class="c bold">git:(</text><text x="192" y="20" class="d bold">master</text><text x="264" y="20" class="c bold">) </text><text x="288" y="20" class="e bold">✗</text><text x="312" y="20" class="g">htop</text><text x="0" y="45" class="d bold">➜  </text><text x="36" y="45" class="b bold">termsvg</text><text x="132" y="45" class="c bold">git:(</text><text x="192" y="45" class="d bold">master</text><text x="264" y="45" class="c bold">) </text><text x="288" y="45" class="e bold">✗</text><text x="312" y="45" class="g">exit</text><rect class="cursor" x="360" y="25" width="12" height="25"/></g><g transform="translate(25160,0)"><text x="0" y="20" class="a bold">➜  </text><text x="36" y="20" class="b bold">termsvg</text><text x="132" y="20" class="c bold">git:(</text><text x="192" y="20" class="d bold">master</text><text x="264" y="20" class="c bold">) </text><text x="288" y="20" class="e bold">✗</text><text x="312" y="20" class="g">htop</text><text x="0" y="45" class="d bold">➜  </text><text x="36" y="45" class="b bold">termsvg</text><text x="132" y="45" class="c bold">git:(</text><text x="192" y="45" class="d bold">master</text><text x="264" y="45" class="c bold">) </text><text x="288" y="45" class="e bold">✗</text><text x="312" y="45" class="g">exit</text><rect class="cursor" x="0" y="50" width="12" height="25"/></g></g></g></svg>